<?xml version="1.0" encoding="utf-8"?>
<!-- Generator: Adobe Illustrator 21.1.0, SVG Export Plug-In . SVG Version: 6.00 Build 0)  -->
<svg version="1.1" id="Layer_1" xmlns="http://www.w3.org/2000/svg" xmlns:xlink="http://www.w3.org/1999/xlink" x="0px" y="0px"
	 viewBox="0 0 8 8;" width="8px" height="8px" style="enable-background:new 0 0 8 8;" xml:space="preserve">
<style type="text/css">
	.st0{fill:#666666;}
</style>
<path class="st0" d="M6.9,8C6.7,8,6.5,7.9,6.3,7.7c-0.5-0.5-1-1-1.5-1.5C4.5,6,4.3,5.7,4.1,5.5c0,0-0.1,0-0.1,0
	C3.2,6.2,2.5,6.9,1.8,7.7C1.4,8,1,8.1,0.6,7.9c-0.6-0.3-0.8-1.1-0.3-1.6C1,5.5,1.8,4.8,2.5,4.1c0,0,0.1-0.1,0-0.2
	C1.8,3.2,1,2.5,0.3,1.8c-0.5-0.5-0.4-1.4,0.3-1.6C1-0.1,1.4,0,1.7,0.3c0.4,0.5,0.9,0.9,1.3,1.3c0.3,0.3,0.6,0.6,0.9,0.9
	c0,0,0.1,0,0.1,0C4.8,1.8,5.5,1,6.3,0.3c0.4-0.4,1.1-0.4,1.5,0c0.3,0.4,0.3,1,0,1.4C7.4,2,7.2,2.3,6.9,2.6C6.5,3,6,3.5,5.5,4
	c0,0,0,0.1,0,0.1c0.7,0.7,1.4,1.4,2.2,2.2C8,6.6,8.1,6.9,7.9,7.3C7.8,7.7,7.4,8,6.9,8z"/>
</svg>
